<svg width="20" height="20" viewBox="0 0 20 20" fill="none" xmlns="http://www.w3.org/2000/svg">
  <path fill-rule="evenodd" clip-rule="evenodd" d="M10 3a7 7 0 100 14 7 7 0 000-14zM2 10a8 8 0 1116 0 8 8 0 01-16 0z" fill="black"/>
  <circle cx="10" cy="10" r="2" fill="black"/>
  <path d="M10 2c3.5 0 6.5 2 7.5 5" stroke="black" stroke-width="1" stroke-linecap="round" stroke-dasharray="2 2"/>
  <path d="M17.5 13c-1 3-4 5-7.5 5" stroke="black" stroke-width="1" stroke-linecap="round" stroke-dasharray="2 2"/>
  <path fill-rule="evenodd" clip-rule="evenodd" d="M0 2C0 .895.895 0 2 0h16c1.105 0 2 .895 2 2v16c0 1.105-.895 2-2 2H2c-1.105 0-2-.895-2-2V2zm2-1h16c.552 0 1 .448 1 1v16c0 .552-.448 1-1 1H2c-.552 0-1-.448-1-1V2c0-.552.448-1 1-1z" fill="black"/>
</svg>
